<?xml version="1.0" standalone="no"?>
<!DOCTYPE svg PUBLIC "-//W3C//DTD SVG 20010904//EN"
 "http://www.w3.org/TR/2001/REC-SVG-20010904/DTD/svg10.dtd">
<svg version="1.0" xmlns="http://www.w3.org/2000/svg"
 width="617.000000pt" height="662.000000pt" viewBox="0 0 617.000000 662.000000"
 preserveAspectRatio="xMidYMid meet">

<g transform="translate(0.000000,662.000000) scale(0.100000,-0.100000)"
fill="#000000" stroke="none">
<path d="M4541 6609 c-134 -15 -276 -47 -419 -95 -247 -82 -298 -121 -338
-254 -13 -46 -95 -170 -111 -170 -5 0 -48 12 -98 25 -74 21 -310 65 -351 65
-6 0 -14 18 -18 40 -16 103 -157 164 -256 111 -63 -33 -63 -58 -6 -216 37
-101 36 -295 -1 -295 -8 0 -48 -22 -88 -48 -39 -27 -108 -64 -151 -81 -141
-58 -273 -133 -335 -189 -68 -62 -97 -103 -124 -177 -92 -251 -306 -577 -421
-642 l-39 -21 0 126 c0 123 -1 130 -32 192 -18 36 -46 79 -63 95 -28 27 -38
30 -92 30 -53 0 -62 -3 -84 -28 -30 -35 -25 -59 24 -141 31 -49 38 -74 48
-155 7 -53 16 -111 19 -128 6 -26 4 -33 -8 -33 -32 0 -228 -309 -348 -550
-218 -438 -324 -845 -336 -1297 -11 -393 30 -603 165 -856 107 -200 206 -374
221 -387 17 -15 17 -23 4 -110 -8 -52 -17 -135 -22 -185 -7 -79 -13 -100 -51
-172 -49 -93 -49 -123 2 -149 44 -23 121 -14 154 17 13 13 40 54 59 92 34 67
35 74 35 181 l1 111 35 -55 c102 -158 174 -349 199 -530 21 -153 54 -221 149
-315 52 -51 94 -82 156 -113 145 -72 220 -82 408 -56 51 7 92 -2 92 -20 0 -18
26 -27 55 -20 19 5 142 -32 173 -52 1 -1 -5 -29 -14 -62 -30 -108 2 -121 49
-21 l29 61 36 -6 c21 -4 75 -9 122 -13 47 -3 94 -12 104 -19 22 -15 46 -3 46
22 0 8 24 26 53 40 l53 26 50 -25 c63 -32 79 -25 70 32 -6 38 -5 41 17 41 13
0 27 4 33 9 5 4 70 21 144 36 242 48 364 77 395 92 40 20 83 61 101 96 19 36
86 315 79 327 -4 6 6 10 22 11 53 1 138 47 310 167 42 30 95 57 122 64 121 29
135 34 153 59 20 26 20 27 0 72 -37 82 -98 102 -217 72 -72 -19 -113 -46 -217
-144 -43 -40 -81 -71 -84 -68 -16 16 72 143 255 366 328 400 413 537 470 761
41 158 37 484 -6 532 -25 28 -85 22 -222 -24 -115 -38 -135 -42 -231 -42 -99
-1 -109 1 -172 32 -132 65 -247 226 -299 417 -30 108 -32 321 -5 445 39 181
112 335 204 432 111 117 197 126 430 48 139 -47 163 -47 170 -3 4 28 -88 207
-146 283 -115 151 -367 360 -434 360 -8 0 -46 15 -85 34 -57 27 -81 47 -118
93 -63 80 -124 209 -185 393 -64 191 -114 290 -188 369 -67 71 -93 83 -250
117 -150 32 -210 60 -275 127 l-52 54 37 61 c21 34 48 88 61 119 20 51 27 58
54 61 50 5 485 -144 509 -174 7 -8 46 -108 88 -222 208 -559 333 -722 659
-857 172 -71 547 -190 832 -264 550 -142 724 -209 775 -294 31 -53 39 -58 60
-47 26 14 26 88 0 376 -11 121 -24 307 -29 414 -12 238 -35 427 -62 517 -28
91 -92 211 -197 368 -103 154 -208 267 -346 372 -55 42 -144 111 -196 154
-143 116 -234 161 -393 194 -89 19 -271 26 -376 14z m419 -89 c110 -32 192
-74 278 -144 42 -34 136 -107 207 -163 72 -55 162 -133 200 -174 114 -120 299
-410 340 -534 24 -72 52 -317 65 -565 6 -118 19 -300 29 -405 9 -104 17 -191
16 -192 -1 -2 -31 13 -67 32 -124 66 -277 115 -702 226 -292 76 -375 101 -621
186 -367 128 -470 193 -590 377 -76 116 -149 274 -229 491 -86 233 -109 281
-143 298 -15 8 -102 41 -191 73 -90 33 -156 60 -145 62 10 1 76 -13 148 -33
119 -31 131 -33 153 -19 37 24 109 130 131 192 32 88 43 105 93 138 84 57 339
137 533 169 135 22 396 14 495 -15z m-1851 -259 c53 -38 45 -132 -22 -271
l-40 -85 -9 80 c-5 44 -22 118 -39 165 -39 109 -39 111 -9 127 30 16 85 9 119
-16z m-30 -549 c25 -26 58 -56 74 -67 23 -17 35 -45 77 -190 27 -93 85 -264
128 -380 67 -182 80 -210 100 -213 13 -2 25 3 28 13 4 9 -29 113 -75 238 -44
122 -98 282 -119 355 l-39 133 24 -6 c14 -3 68 -15 121 -26 124 -25 156 -42
215 -115 63 -77 104 -164 167 -354 82 -247 176 -406 278 -471 26 -16 78 -39
115 -51 38 -11 95 -38 127 -59 77 -52 241 -208 299 -285 51 -68 119 -190 110
-198 -3 -3 -43 7 -90 23 -168 57 -252 63 -343 23 l-44 -20 -12 42 c-34 113
-132 274 -269 438 -106 127 -158 173 -177 157 -25 -20 -16 -39 57 -117 153
-164 275 -349 329 -499 l22 -62 -51 -57 c-94 -102 -183 -320 -212 -513 -18
-128 -7 -316 25 -426 53 -178 159 -332 282 -411 l51 -32 -10 -74 c-23 -182
-96 -404 -204 -626 -60 -121 -64 -135 -50 -149 26 -26 44 -8 92 88 120 237
189 450 230 702 5 34 9 37 28 31 47 -16 191 -6 272 19 44 13 115 35 157 47 43
13 80 21 83 18 3 -3 10 -57 15 -119 18 -202 -10 -366 -91 -537 -70 -148 -162
-279 -393 -557 -187 -225 -284 -372 -270 -409 4 -11 0 -16 -14 -16 -42 0 -52
11 -52 54 0 54 -19 79 -57 79 -43 0 -89 -37 -135 -107 -65 -101 -89 -227 -53
-283 15 -22 22 -25 58 -20 33 5 51 16 86 52 37 40 47 45 72 40 23 -5 27 -10
19 -23 -5 -9 -23 -79 -40 -155 -33 -145 -53 -182 -110 -212 -33 -17 -407 -95
-455 -95 -36 0 -70 24 -79 55 -4 15 8 30 50 64 115 92 163 202 174 401 9 158
28 219 96 310 48 63 53 93 18 98 -15 2 -32 -11 -61 -50 -77 -101 -113 -199
-113 -312 -1 -191 -38 -285 -157 -396 -87 -81 -174 -127 -264 -140 -67 -10
-320 2 -417 20 -79 14 -145 69 -194 163 -21 38 -23 57 -25 217 -4 297 -20 351
-133 445 -91 76 -115 106 -163 201 -38 76 -57 92 -81 68 -13 -12 -12 -21 9
-69 47 -105 95 -165 216 -270 70 -60 81 -105 85 -341 2 -144 7 -202 20 -239
18 -56 52 -111 83 -139 27 -24 27 -38 -1 -63 -34 -30 -203 -67 -270 -59 -128
16 -279 94 -363 188 -63 70 -91 136 -104 245 -20 167 -87 358 -184 521 -64
109 -81 126 -109 111 -18 -10 -20 -9 -15 6 4 9 7 27 7 40 0 25 54 95 72 95 6
0 23 -11 40 -25 39 -33 82 -33 104 0 37 56 -1 214 -73 309 -97 127 -195 98
-180 -52 l6 -57 -56 -50 c-31 -27 -58 -45 -60 -39 -2 6 -52 96 -110 200 -184
326 -224 442 -243 715 -48 659 150 1336 578 1972 l60 88 7 -37 c11 -63 43
-113 95 -150 46 -33 49 -38 43 -67 -20 -95 7 -157 67 -157 44 0 104 59 147
147 30 61 37 87 41 152 4 70 2 81 -17 100 -29 29 -54 26 -96 -10 -34 -30 -36
-31 -60 -15 -13 9 -31 29 -39 44 -15 29 -15 29 27 47 124 54 355 380 453 641
37 99 58 135 106 180 61 59 234 164 269 164 9 0 10 -29 6 -112 -12 -215 -76
-380 -252 -651 -98 -148 -108 -177 -63 -177 19 0 42 30 123 153 117 178 166
272 201 382 38 120 54 208 61 331 l6 112 48 23 c27 12 75 40 106 61 84 55 122
53 182 -10z m-1412 -646 c16 -13 41 -47 56 -75 22 -40 26 -54 17 -71 -15 -29
-43 -40 -97 -40 l-48 1 -38 65 c-44 75 -46 112 -7 131 40 20 85 16 117 -11z
m102 -224 c1 -38 -50 -82 -96 -82 -50 0 -59 7 -66 56 l-7 40 49 0 c36 -1 57 5
78 20 25 19 29 20 35 5 4 -9 7 -26 7 -39z m-2 -108 c-7 -63 -37 -94 -93 -94
-41 0 -42 1 -53 44 -16 63 -17 61 42 58 42 -3 58 1 77 17 14 11 27 20 29 21 2
0 1 -21 -2 -46z m-6 -216 c-52 -46 -107 -36 -116 20 -4 21 -8 47 -11 60 -4 21
-2 23 28 17 19 -3 44 0 58 8 24 12 26 11 49 -32 l24 -45 -32 -28z m88 -18 c8
0 7 -10 -6 -31 -49 -85 -94 -100 -144 -50 -16 16 -29 34 -29 39 0 5 19 12 42
15 25 3 51 15 67 31 22 23 27 24 41 11 9 -8 22 -15 29 -15z m71 -36 c58 -39
68 -94 24 -138 -32 -32 -54 -33 -105 -4 -45 25 -48 40 -15 71 13 12 31 37 40
55 19 37 23 38 56 16z m-285 -2780 c43 -46 27 -107 -35 -139 -29 -15 -29 -15
-51 25 -13 22 -26 40 -31 40 -4 0 -14 12 -22 28 -14 26 -13 28 22 49 50 31 87
29 117 -3z m-153 -76 c8 -7 25 -28 38 -46 l22 -33 -23 -25 -23 -24 -28 27
c-20 19 -43 29 -75 33 l-47 5 33 38 c35 39 73 48 103 25z m-34 -113 l30 -25
-15 -49 -16 -49 -35 15 c-21 9 -46 12 -65 7 -25 -5 -29 -4 -24 11 4 9 7 32 7
50 0 65 63 87 118 40z m-4 -160 c9 -14 16 -40 16 -60 l0 -36 -32 17 c-21 11
-47 15 -80 12 -41 -4 -48 -3 -44 11 2 9 7 33 10 53 6 31 11 37 34 40 39 5 78
-10 96 -37z m-10 -111 c20 -21 26 -37 26 -71 l0 -44 -31 23 c-23 17 -44 23
-80 22 l-49 0 0 42 c0 47 6 52 66 53 32 1 47 -5 68 -25z m3216 -9 c50 -26 76
-99 45 -125 -23 -19 -154 -41 -175 -30 -51 27 -79 112 -46 139 14 12 81 28
124 30 13 1 36 -6 52 -14z m-171 -147 c18 -16 31 -31 29 -32 -63 -47 -68 -48
-93 -32 -65 43 -70 115 -12 160 l32 26 6 -47 c4 -35 13 -52 38 -75z m-3047 30
c15 -21 15 -25 -13 -79 -34 -68 -70 -99 -115 -99 -41 0 -81 17 -89 39 -3 8 11
48 32 89 28 55 43 74 63 78 14 3 30 7 35 8 21 6 71 -15 87 -36z m2953 -97 c37
-32 36 -35 -23 -65 -28 -14 -36 -15 -50 -4 -54 42 -57 96 -9 146 l32 33 8 -40
c5 -26 19 -50 42 -70z m-382 18 c20 -5 37 -11 37 -13 0 -2 -7 -23 -15 -46 -8
-23 -15 -52 -15 -64 0 -44 -14 -51 -64 -32 -26 10 -51 26 -56 36 -23 43 -1
102 44 120 28 11 25 11 69 -1z m277 -87 l28 -29 -49 -32 c-40 -26 -53 -30 -69
-21 -28 15 -40 42 -40 89 0 32 4 41 18 41 9 0 31 9 47 20 l30 20 3 -30 c2 -16
16 -42 32 -58z m-157 41 c4 -2 5 -14 1 -27 -6 -27 9 -69 35 -95 l21 -21 -25
-6 c-42 -10 -90 4 -105 31 -11 20 -11 35 -1 80 12 53 14 55 39 49 15 -4 30 -9
35 -11z m-1388 -675 c-40 -23 -91 -35 -114 -26 l-24 8 21 23 c20 21 26 22 77
13 37 -7 50 -13 40 -18z m525 18 c0 -8 2 -21 5 -28 7 -16 -34 -38 -68 -38 -12
1 -38 9 -57 20 l-35 18 30 7 c17 4 48 13 70 20 52 18 55 18 55 1z m-393 -55
c-23 -22 -43 -38 -45 -36 -2 1 4 19 12 39 12 30 20 36 45 36 l30 0 -42 -39z
m187 -22 c4 -28 4 -54 1 -57 -3 -3 -31 20 -63 51 l-57 57 56 0 56 0 7 -51z
m-273 7 c-6 -14 -16 -26 -23 -26 -15 0 -45 17 -38 22 18 11 65 34 68 33 1 -1
-2 -14 -7 -29z m174 -36 l29 -30 -40 0 c-21 0 -49 3 -62 6 l-23 7 22 23 c29
31 39 30 74 -6z m189 12 c10 -5 -13 -22 -31 -22 -7 0 -13 9 -13 20 0 18 13 19
44 2z"/>
<path d="M3252 4764 c-5 -9 -6 -31 -2 -48 23 -94 51 -127 85 -102 17 12 17 16
-5 72 -12 32 -26 66 -30 74 -10 22 -37 24 -48 4z"/>
<path d="M3381 4761 c-40 -26 0 -133 51 -139 35 -4 45 25 18 53 -11 12 -20 32
-20 46 0 23 -16 49 -29 49 -4 0 -13 -4 -20 -9z"/>
<path d="M2707 4753 c-3 -4 -8 -25 -12 -46 -4 -20 -16 -49 -27 -62 -21 -27
-18 -52 7 -61 22 -9 51 21 70 71 22 56 17 99 -12 103 -11 2 -23 -1 -26 -5z"/>
<path d="M3100 4745 c-20 -24 -9 -148 16 -182 23 -31 61 -42 70 -20 3 8 -5 33
-17 56 -17 32 -20 53 -17 89 3 26 4 53 1 60 -6 17 -38 15 -53 -3z"/>
<path d="M2533 4743 c-7 -2 -13 -17 -13 -32 0 -15 -9 -36 -20 -46 -26 -24 -22
-59 6 -63 48 -7 97 101 62 136 -13 13 -16 13 -35 5z"/>
<path d="M2916 4735 c-17 -18 -40 -110 -35 -144 5 -28 34 -50 48 -36 5 6 14
37 20 70 6 33 13 70 17 82 8 29 -28 50 -50 28z"/>
<path d="M1956 3961 c-10 -15 -63 -250 -99 -436 -120 -614 -98 -1034 80 -1515
36 -97 56 -122 84 -104 15 9 8 41 -41 174 -91 252 -131 489 -131 780 1 297 37
544 152 1026 6 29 9 59 6 68 -7 17 -42 22 -51 7z"/>
<path d="M3137 1262 c-25 -27 -37 -69 -37 -126 0 -59 17 -90 46 -84 17 3 19
12 19 73 1 51 6 78 19 97 10 16 16 35 12 43 -7 20 -39 19 -59 -3z"/>
<path d="M2900 1245 c-15 -18 -8 -87 15 -141 11 -28 19 -35 37 -32 18 2 23 9
21 28 -3 46 -19 135 -27 148 -10 16 -31 15 -46 -3z"/>
<path d="M2670 1215 c-10 -12 -8 -21 9 -48 11 -19 24 -51 29 -73 7 -33 12 -39
32 -39 19 0 26 6 28 25 8 51 -40 150 -73 150 -7 0 -18 -7 -25 -15z"/>
<path d="M3296 1188 c-39 -62 -46 -153 -12 -153 21 0 24 5 56 88 18 46 20 60
10 72 -18 21 -37 19 -54 -7z"/>
</g>
</svg>
